HIERARCHY
ROOT Hips
{
	OFFSET 0.000000 0.000000 0.000000
	CHANNELS 6 Xposition Yposition Zposition Zrotation Yrotation Xrotation 
	JOINT LHipJoint
	{
		OFFSET 0.000000 0.000000 0.000000
		CHANNELS 3 Zrotation Yrotation Xrotation
		JOINT LeftUpLeg
		{
			OFFSET 1.363060 -1.794630 0.839290
			CHANNELS 3 Zrotation Yrotation Xrotation
			JOINT LeftLeg
			{
				OFFSET 2.448110 -6.726130 0.000000
				CHANNELS 3 Zrotation Yrotation Xrotation
				JOINT LeftFoot
				{
					OFFSET 2.562200 -7.039590 0.000000
					CHANNELS 3 Zrotation Yrotation Xrotation
					JOINT LeftToeBase
					{
						OFFSET 0.157640 -0.433110 2.322550
						CHANNELS 3 Zrotation Yrotation Xrotation
						End Site
						{
							OFFSET 0.000000 0.000000 0.000000
						}
					}
				}
			}
		}
	}
	JOINT RHipJoint
	{
		OFFSET 0.000000 0.000000 0.000000
		CHANNELS 3 Zrotation Yrotation Xrotation
		JOINT RightUpLeg
		{
			OFFSET -1.305520 -1.794630 0.839290
			CHANNELS 3 Zrotation Yrotation Xrotation
			JOINT RightLeg
			{
				OFFSET -2.542530 -6.985550 0.000000
				CHANNELS 3 Zrotation Yrotation Xrotation
				JOINT RightFoot
				{
					OFFSET -2.568260 -7.056230 0.000000
					CHANNELS 3 Zrotation Yrotation Xrotation
					JOINT RightToeBase
					{
						OFFSET -0.164730 -0.452590 2.363150
						CHANNELS 3 Zrotation Yrotation Xrotation
						End Site
						{
							OFFSET 0.000000 0.000000 0.000000
						}
					}
				}
			}
		}
	}
	JOINT LowerBack
	{
		OFFSET 0.000000 0.000000 0.000000
		CHANNELS 3 Zrotation Yrotation Xrotation
		JOINT Spine
		{
			OFFSET 0.028270 2.035590 -0.193380
			CHANNELS 3 Zrotation Yrotation Xrotation
			JOINT Spine1
			{
				OFFSET 0.056720 2.048850 -0.042750
				CHANNELS 3 Zrotation Yrotation Xrotation
				JOINT Neck
				{
					OFFSET 0.000000 0.000000 0.000000
					CHANNELS 3 Zrotation Yrotation Xrotation
					JOINT Neck1
					{
						OFFSET -0.054170 1.746240 0.172020
						CHANNELS 3 Zrotation Yrotation Xrotation
						JOINT Head
						{
							OFFSET 0.104070 1.761360 -0.123970
							CHANNELS 3 Zrotation Yrotation Xrotation
							End Site
							{
								OFFSET 0.000000 0.000000 0.000000
							}
						}
					}
				}
				JOINT LeftShoulder
				{
					OFFSET 0.000000 0.000000 0.000000
					CHANNELS 3 Zrotation Yrotation Xrotation
					JOINT LeftArm
					{
						OFFSET 3.362410 1.200890 -0.311210
						CHANNELS 3 Zrotation Yrotation Xrotation
						JOINT LeftForeArm
						{
							OFFSET 4.983000 -0.000000 -0.000000
							CHANNELS 3 Zrotation Yrotation Xrotation
							JOINT LeftHand
							{
								OFFSET 3.483560 -0.000000 -0.000000
								CHANNELS 3 Zrotation Yrotation Xrotation
								JOINT LeftFingerBase
								{
									OFFSET 0.000000 0.000000 0.000000
									CHANNELS 3 Zrotation Yrotation Xrotation
									JOINT LeftHandIndex1
									{
										OFFSET 0.715260 -0.000000 -0.000000
										CHANNELS 3 Zrotation Yrotation Xrotation
										End Site
										{
											OFFSET 0.000000 0.000000 0.000000
										}
									}
								}
								JOINT LThumb
								{
									OFFSET 0.000000 0.000000 0.000000
									CHANNELS 3 Zrotation Yrotation Xrotation
									End Site
									{
										OFFSET 0.000000 0.000000 0.000000
									}
								}
							}
						}
					}
				}
				JOINT RightShoulder
				{
					OFFSET 0.000000 0.000000 0.000000
					CHANNELS 3 Zrotation Yrotation Xrotation
					JOINT RightArm
					{
						OFFSET -3.136600 1.374050 -0.404650
						CHANNELS 3 Zrotation Yrotation Xrotation
						JOINT RightForeArm
						{
							OFFSET -5.241900 -0.000000 -0.000000
							CHANNELS 3 Zrotation Yrotation Xrotation
							JOINT RightHand
							{
								OFFSET -3.444170 -0.000000 -0.000000
								CHANNELS 3 Zrotation Yrotation Xrotation
								JOINT RightFingerBase
								{
									OFFSET 0.000000 0.000000 0.000000
									CHANNELS 3 Zrotation Yrotation Xrotation
									JOINT RightHandIndex1
									{
										OFFSET -0.622530 -0.000000 -0.000000
										CHANNELS 3 Zrotation Yrotation Xrotation
										End Site
										{
											OFFSET 0.000000 0.000000 0.000000
										}
									}
								}
								JOINT RThumb
								{
									OFFSET 0.000000 0.000000 0.000000
									CHANNELS 3 Zrotation Yrotation Xrotation
									End Site
									{
										OFFSET 0.000000 0.000000 0.000000
									}
								}
							}
						}
					}
				}
			}
		}
	}
}
MOTION
Frames: 7
Frame Time: 0.008333
0.437715 16.359610 -34.196847 -1.686476 -9.287160 7.279443 1.633374 -11.717418 -14.665380 -14.051050 4.895443 3.760635 -12.534181 3.023346 29.080466 -15.153184 -30.567896 2.533123 7.900829 13.190946 4.337187 -0.132245 13.853151 -15.705139 3.597673 -10.378359 -10.993992 12.333960 -4.192296 31.127198 -7.227685 9.753243 -19.240619 4.900246 -13.944378 0.103180 -0.832001 -0.217747 32.878781 2.638245 -1.323382 -10.221217 2.235346 -2.811618 6.483305 -1.698710 1.890012 -21.086721 1.835453 2.041359 13.591648 -7.365655 3.522956 10.674308 17.558878 0.997373 -0.458514 -80.748036 -51.789098 15.075675 -2.764440 -51.719560 35.493095 -6.418659 -27.678806 5.670901 0.000002 -0.000001 0.000002 -0.000000 0.000000 0.000000 0.000000 0.000000 -0.000000 -7.604345 -5.232153 3.958591 71.909367 22.533927 -18.559975 24.647238 26.245671 13.159622 3.675521 7.675450 1.386293 -0.000005 0.000004 -0.000002 -0.000000 -0.000000 0.000000 -0.000000 0.000000 0.000000 
0.364886 16.357658 -34.104204 -1.661097 -8.394114 7.282646 1.070167 -11.815194 -14.514238 -13.076935 4.965985 2.985553 -12.069214 4.011693 30.638409 -17.251498 -31.628159 5.333313 6.760928 12.471137 2.943880 -0.071522 13.701231 -15.662667 3.656887 -10.644325 -10.810626 12.162938 -4.858200 31.358089 -7.877656 9.234330 -19.891129 5.018226 -13.464278 -0.335144 -0.299640 -0.065514 33.002520 2.535974 -1.224451 -10.278802 1.557247 -2.605476 6.310262 -1.289585 1.935446 -20.963954 1.664930 1.990516 13.521946 -7.021583 3.210143 10.706097 17.939183 0.763399 -0.488952 -81.207383 -52.228557 15.908234 -2.284284 -52.509699 35.824398 -6.458207 -28.336490 5.813688 0.000002 -0.000001 0.000002 0.000000 0.000000 -0.000000 0.000000 0.000000 0.000000 -7.104552 -5.241887 4.023266 71.907047 22.138502 -18.843803 24.563418 26.419993 14.300375 4.445659 9.016634 1.691437 -0.000005 0.000004 -0.000002 0.000000 0.000000 0.000000 0.000000 0.000000 0.000000 
0.284646 16.393093 -34.003604 -1.611182 -7.412246 7.662809 0.360258 -11.940245 -14.048388 -11.684451 4.549022 1.158826 -12.282278 4.945814 32.871290 -18.429407 -30.958419 8.458664 3.517337 9.568763 -0.712724 0.269003 13.718670 -15.559181 3.256061 -10.965584 -10.569377 12.040521 -5.355023 30.903435 -8.028120 9.434145 -20.279933 4.837171 -13.709090 0.071136 -0.027778 0.000350 32.897832 2.548230 -1.182564 -10.488810 1.851575 -2.606636 6.287973 -1.620298 1.897524 -21.062320 1.381117 2.000230 13.587854 -6.670568 2.621421 10.463873 17.243513 0.652118 -0.491966 -81.638166 -52.386267 16.323084 -2.008868 -53.134564 36.373855 -5.408092 -29.240660 5.705487 0.000002 -0.000001 0.000002 0.000000 0.000000 0.000000 0.000000 0.000000 0.000000 -6.970705 -5.378179 4.145008 71.634414 22.243459 -19.165592 24.651084 25.966727 16.558722 3.579180 11.131326 1.978485 -0.000005 0.000004 -0.000002 0.000000 -0.000000 -0.000000 -0.000000 -0.000000 0.000000 
0.209377 16.409309 -33.907508 -1.627081 -6.428221 7.852264 -0.073117 -12.080505 -13.776292 -10.579078 4.104851 -0.298047 -12.635934 5.707508 35.153271 -18.612234 -29.905887 10.889046 1.619820 7.665219 -2.768588 0.217250 13.738351 -15.641198 3.376368 -11.712002 -10.148541 11.355350 -6.487109 30.278524 -7.732519 10.861229 -20.497913 4.496408 -15.016804 1.283084 0.358348 0.009635 32.830207 2.533966 -1.237211 -10.555137 2.480190 -2.777615 6.348541 -2.312679 1.887447 -21.154024 1.143652 2.094710 13.571494 -6.359826 2.158728 10.137370 16.423770 0.778383 -0.561203 -82.079928 -52.450746 16.723364 -1.608728 -53.806448 36.591261 -5.358953 -29.596868 5.762807 0.000002 -0.000001 0.000002 -0.000000 -0.000000 -0.000000 0.000000 -0.000000 0.000000 -7.503548 -5.344515 4.276961 71.528187 22.465271 -19.242910 24.773162 25.550227 16.364479 4.336147 11.375580 2.110508 -0.000005 0.000004 -0.000002 0.000000 0.000000 0.000000 0.000000 0.000000 0.000000 
0.136890 16.408408 -33.815616 -1.593464 -5.559862 7.854291 -0.274636 -12.276218 -13.535648 -9.813741 3.714441 -1.560387 -12.590503 7.061990 37.134619 -18.979735 -29.134997 13.649551 3.538253 6.080484 1.913127 -0.151378 13.770937 -15.926415 3.752466 -12.403244 -9.378667 10.629298 -7.785063 29.630903 -7.417845 12.411966 -20.773492 4.162733 -16.095922 2.325406 0.680733 0.018797 32.802943 2.458070 -1.133700 -10.483964 2.732819 -2.692052 6.453223 -2.711200 1.858035 -21.198486 0.969584 2.117672 13.507260 -5.833321 1.636276 10.215910 16.222595 0.608639 -0.838771 -82.510409 -52.415575 17.047820 -1.176505 -54.522493 36.237436 -5.247238 -29.111574 5.635081 0.000002 -0.000001 0.000002 0.000000 -0.000000 0.000000 -0.000000 -0.000000 0.000000 -7.895693 -5.590231 4.403369 71.574337 22.644436 -19.498756 25.068934 25.046865 17.125867 3.911170 12.426556 2.232272 -0.000005 0.000004 -0.000002 0.000000 0.000000 0.000000 -0.000000 -0.000000 0.000000 
0.061294 16.401201 -33.718168 -1.591238 -4.634998 7.914763 -0.221228 -12.573829 -13.278361 -9.252130 2.903024 -2.735639 -12.809037 8.426572 38.917464 -18.380967 -28.105986 15.681625 5.155085 5.555477 5.265381 -0.724618 13.855660 -16.212337 4.420776 -13.536407 -8.841443 10.122742 -8.402091 29.307703 -7.565334 13.390692 -21.314582 3.314006 -16.852472 4.005982 1.012352 -0.008073 32.597750 2.438271 -1.270038 -10.375234 2.736315 -2.782404 6.257619 -2.769016 1.832485 -20.856658 0.773533 2.067577 13.418519 -5.754277 1.231193 10.476746 16.279144 0.686849 -0.829034 -82.886251 -52.156165 17.361454 -0.656402 -55.243093 36.314325 -5.208252 -29.408646 5.683984 0.000002 -0.000001 0.000002 0.000000 -0.000000 0.000000 0.000000 -0.000000 0.000000 -8.193117 -5.064934 4.199854 71.686227 22.088654 -19.073914 25.091366 24.866532 17.932358 2.382552 12.648098 2.109646 -0.000005 0.000004 -0.000002 -0.000000 0.000000 0.000000 -0.000000 0.000000 0.000000 
-0.006603 16.415616 -33.619219 -1.570674 -3.714671 8.159030 -0.549086 -12.641198 -13.192470 -8.301421 3.199258 -4.316195 -12.081695 9.635218 40.781466 -18.645370 -26.696402 17.492317 1.465267 6.102528 -2.079590 -0.767575 13.892238 -16.156286 4.486007 -14.378929 -8.728194 10.199757 -8.379745 29.213198 -7.954825 13.393547 -21.885129 2.965672 -16.669984 4.455569 1.360560 -0.132622 32.598946 2.446362 -1.595220 -10.447214 2.531463 -3.062657 5.975515 -2.668474 1.912828 -20.632024 0.623114 2.092612 13.399799 -5.049752 0.958546 10.768525 16.190807 1.149476 -0.598085 -83.072504 -51.778527 18.008266 0.158294 -55.744561 36.647061 -4.851975 -30.287928 5.751160 0.000002 -0.000001 0.000002 0.000000 -0.000000 0.000000 -0.000000 -0.000000 0.000000 -8.263817 -4.197646 3.885801 71.887857 21.715098 -18.291793 25.504720 24.578202 21.647254 -1.653236 14.476651 1.733340 -0.000005 0.000004 -0.000002 0.000000 0.000000 0.000000 -0.000000 -0.000000 -0.000000 
